<?xml version="1.0" encoding="UTF-8"?>
<svg width="24px" height="24px" viewBox="0 0 24 24" stroke-width="1.5" fill="none" xmlns="http://www.w3.org/2000/svg" color="#000000">
  <path d="M15.5 14.5l-2-2-2 2" stroke="#000000" stroke-width="1.5" stroke-linecap="round" stroke-linejoin="round"></path>
  <path d="M14.5 7.5c0 1.105-.895 2-2 2s-2-.895-2-2 .895-2 2-2 2 .895 2 2z" stroke="#000000" stroke-width="1.5" stroke-linecap="round" stroke-linejoin="round"></path>
  <path d="M11.5 9.5v3M9 15.5v-3c0-.465 0-.697.038-.89a2 2 0 011.572-1.572C10.803 10 11.035 10 11.5 10s.697 0 .89.038a2 2 0 011.572 1.572c.038.193.038.425.038.89v5c0 1.886 0 2.828-.586 3.414C12.83 21.5 11.886 21.5 10 21.5c-1.886 0-2.828 0-3.414-.586C6 19.33 6 18.386 6 16.5v-1c0-.932 0-1.398.152-1.765a2 2 0 01.083-.18c.176-.328.457-.61 1.018-1.17l1-1c.285-.286.603-.604.986-.732a1.36 1.36 0 01.561-.058c.656.058 1.056.856.7 1.377v.004c-.212.312-.523.539-.896.68l-.604.182" stroke="#000000" stroke-width="1.5" stroke-linecap="round" stroke-linejoin="round"></path>
</svg>
